<?xml version="1.0" encoding="UTF-8"?>
<svg version="1.1" viewBox="0 0 1600 896" xmlns="http://www.w3.org/2000/svg">
<!-- <svg version="1.1" viewBox="0 0 1600 896" width="1280" height="1280" xmlns="http://www.w3.org/2000/svg"> -->
<path transform="translate(0)" d="m0 0h1600v896h-1600v-896z" fill="#FDFDFE"/>
<path transform="translate(640,381)" d="m0 0c1.39 2.77 1.16 5.06 1.19 8.16 0.0167 1.29 0.0334 2.59 0.0507 3.92 0.00668 0.694 0.0134 1.39 0.0202 2.1 0.021 2.17 0.048 4.34 0.0767 6.5 0.0699 5.38 0.129 10.8 0.189 16.2 0.0509 4.55 0.106 9.1 0.166 13.6 0.0266 2.14 0.0474 4.28 0.068 6.42 0.0167 1.29 0.0334 2.59 0.0507 3.92 0.0125 1.14 0.0251 2.29 0.038 3.47-0.0288 2.66-0.0288 2.66 1.15 4.69 0.629-0.447 1.26-0.895 1.91-1.36 2.69-1.9 5.39-3.77 8.09-5.64 0.691-0.486 1.38-0.972 2.09-1.47 4.44-2.97 8.74-4.59 13.9-5.95 1.98-0.398 1.98-0.398 3-1.58 19.4-2.4 19.4-2.4 26 2 2.01 0.463 4.03 0.873 6.06 1.25 10.2 2.28 19 7.89 25.9 15.8 0.377 1.32 0.721 2.65 1 4 0.639 0.268 1.28 0.536 1.94 0.812 2.06 1.19 2.06 1.19 3.31 4.81 0.247 1.11 0.495 2.23 0.75 3.38h2c6.98 17.7 10.9 34.2 5 53-0.223 0.771-0.446 1.54-0.676 2.34-4.02 12.9-12.3 23.8-23.3 31.7-1.24 0.351-2.48 0.701-3.75 1.06-1.07 0.309-2.14 0.619-3.25 0.938-0.33 0.99-0.66 1.98-1 3-2.65 0.879-2.65 0.879-5.94 1.56-4.51 0.804-4.51 0.804-8.06 3.44-7.16 1.22-14.6 1.11-21.9 1.19-0.701 0.0131-1.4 0.0261-2.12 0.0396-4.69 0.00779-8.56-0.773-13-2.23-1.22-0.367-2.43-0.735-3.68-1.11-17-5.44-17-5.44-21.3-11.9-0.784-0.465-1.57-0.931-2.38-1.41-7.71-4.67-11.6-13.1-14.7-21.2-0.695-2.29-0.695-2.29-1.91-3.37-1.63-7.99-2.31-16.1-2.75-24.2-0.0692-2.75-0.0692-2.75-1.25-4.8-0.109-3.09-0.157-6.16-0.161-9.25-0.00496-0.96-0.00993-1.92-0.015-2.91-0.0147-3.19-0.0214-6.38-0.0269-9.56-0.00575-2.22-0.0115-4.43-0.0173-6.65-0.0105-4.65-0.0164-9.31-0.0198-14-0.00547-5.95-0.0295-11.9-0.058-17.8-0.0187-4.58-0.0238-9.16-0.0254-13.7-0.00302-2.19-0.011-4.38-0.0242-6.57-0.0172-3.08-0.0152-6.15-0.00869-9.23-0.0138-1.34-0.0138-1.34-0.0279-2.72 0.0398-6.09 0.752-12 3.38-17.6 6.36-5.69 16.2-5.12 24-3z" fill="#00276C"/>
<path transform="translate(776 380)" d="m0 0c1.04-0.00258 2.08-0.00516 3.15-0.00781 4.94 0.226 4.94 0.226 6.91 1.13 1.86 3.71 2.24 6.71 2.21 10.8-0.00338 1.15-0.00676 2.3-0.0102 3.48-0.0135 1.23-0.0269 2.46-0.0408 3.73-0.0052 1.27-0.0104 2.54-0.0158 3.85-0.0148 3.37-0.0377 6.74-0.0654 10.1-0.038 4.75-0.0657 9.5-0.0877 14.3-0.0123 2.53-0.0299 5.05-0.0533 7.58-0.00653 1.14-0.0131 2.29-0.0198 3.47-0.00825 1.01-0.0165 2.01-0.025 3.05 0.0961 2.39 0.421 4.37 1.11 6.65 3.68-0.23 5.68-1.41 8.44-3.69 9.2-7.18 20.1-10.3 31.6-11.3 0.731-0.0941 1.46-0.188 2.21-0.285 11.8-0.882 25.1 5.1 34.8 11.3 0.733 0.469 1.47 0.938 2.22 1.42 1.65 1.11 3.22 2.34 4.78 3.58v2h2c0.33 1.32 0.66 2.64 1 4h2v2h2c5.18 10.4 5.18 10.4 6.1 12.2 0.812 1.6 1.69 3.17 2.57 4.74 3.36 7.66 2.52 16.6 2.52 24.8 0.0122 1.2 0.0245 2.4 0.0371 3.63 0.0327 20.1 0.0327 20.1-5.22 26.6-0.681 1.66-0.681 1.66-1.38 3.35-1.76 3.95-3.83 6.78-6.62 10-0.438 0.532-0.877 1.06-1.33 1.61-2.18 2.58-3.41 3.92-6.67 5.01-0.619 0.66-1.24 1.32-1.88 2-2.41 2.27-3.89 2.64-7.12 3-0.33 0.99-0.66 1.98-1 3-2.62 1.1-2.62 1.1-5.88 2.06-3.53 1.06-6.04 1.88-9.12 3.94-2.69 0.196-5.27 0.28-7.96 0.266-1.17 0.00287-1.17 0.00287-2.37 0.0058-1.65 0.00136-3.3-0.00233-4.96-0.0107-2.52-0.0107-5.03-1.23e-4 -7.54 0.0127-1.61-0.00132-3.21-0.00389-4.82-0.00781-0.747 0.00405-1.49 0.0081-2.26 0.0123-4.42-0.0392-7.98-0.664-12.1-2.28-1.52-0.516-1.52-0.516-3.08-1.04-11.2-4.04-19.7-9.45-26.9-19-0.547-0.7-1.09-1.4-1.66-2.12-3.62-4.97-5.39-9.6-6.7-15.6-0.488-2.46-0.488-2.46-2.64-4.29-0.489-3.08-0.832-6.06-1.09-9.16-0.0836-0.998-0.167-2-0.253-3.03-1.18-15.8-1.12-31.7-1.26-47.6-0.04-4.38-0.0914-8.75-0.141-13.1-0.0836-7.48-0.151-15-0.205-22.4-0.0348-4.74-0.0856-9.47-0.145-14.2-0.0191-2.15-0.0377-4.31-0.0557-6.46-0.0154-0.934-0.0307-1.87-0.0465-2.83-0.0288-5.53-0.0291-11.4 3.6-15.9 4.72-3.48 7.73-4.4 13.5-4.38z" fill="#00276C"/>
<path transform="translate(531 389)" d="m0 0c1.45 0.866 1.45 0.866 2.94 1.75 1.27 0.743 1.27 0.743 2.56 1.5 6.78 6.96 14.4 21.5 14.4 31.5h2c0.326 0.857 0.652 1.71 0.988 2.6 4.13 10.9 4.13 10.9 9.14 21.4 1.9 3.71 2.53 6.87 2.88 11h2c0.673 1.77 1.34 3.54 2 5.31 0.371 0.986 0.743 1.97 1.12 2.99 0.875 2.7 0.875 2.7 0.875 5.7h2c0.17 0.557 0.34 1.11 0.516 1.69 1.27 4 2.62 7.73 4.61 11.4 1.93 3.66 2.53 6.76 2.88 10.9h2c0.254 0.808 0.508 1.62 0.77 2.45 0.344 1.07 0.688 2.14 1.04 3.24 0.336 1.06 0.673 2.11 1.02 3.2 1.12 2.98 2.51 5.41 4.17 8.11 0.773 2 0.773 2 1.38 4 1.6 5.06 3.51 9.98 5.43 14.9 0.95 2.45 1.86 4.92 2.75 7.39 1.07 2.75 2.19 5.17 3.56 7.75 1.91 3.7 2.62 6.79 2.88 10.9-2.61 2.61-9.75 1.23-13.3 1.24-2.06 0.00969-4.12 0.0407-6.18 0.0723-1.29 0.00516-2.59 0.0103-3.92 0.0156-1.19 0.00935-2.39 0.0187-3.61 0.0283-2.99-0.356-2.99-0.356-4.83-1.77-2.64-3.63-3.56-7.15-4.59-11.5-0.859-3.15-2.27-6.07-3.56-9.07-0.795-2.61-1.54-5.23-2.25-7.86-0.635-2.32-0.635-2.32-2.75-4.14-0.99-2.97-1.98-5.94-3-9h-81c-3.31 6.62-6.22 13.2-9 20-0.375 0.906-0.75 1.81-1.14 2.75-1.92 4.7-3.54 9.34-4.86 14.3-0.659 2-1.32 4-2 6-19 1.52-19 1.52-27-1-0.625-2.38-0.625-2.38-1-5 0.99-0.99 0.99-0.99 2-2 0.759-2.09 0.759-2.09 1.38-4.5 1.53-5.34 3.51-10.4 5.62-15.5 0.508-1.27 1.01-2.55 1.52-3.82 0.265-0.669 0.53-1.34 0.803-2.03 0.524-1.32 1.05-2.65 1.57-3.97 1.25-3.13 2.58-6.17 4.11-9.18 2.15-5.06 4.09-10.2 5.94-15.4 1.78-4.94 3.74-9.77 5.79-14.6 0.832-1.97 1.65-3.94 2.46-5.92 2.6-6.36 5.42-12.6 8.37-18.8 1.49-3.16 2.9-6.31 4.08-9.61 1.47-3.94 3.28-7.58 5.18-11.3 2.76-5.5 4.95-11.2 7.22-17 1.27-3.16 2.62-6.29 3.97-9.42 0.495-1.2 0.99-2.39 1.5-3.62 1.32-2.98 2.76-5.63 4.5-8.38 0.588-1.24 0.588-1.24 1.19-2.5 6.6-9.11 20.8-11.4 30.9-7.25z" fill="#00276C"/>
<path transform="translate(1063,439)" d="m0 0c1.84 1.84 1.16 4.83 1.19 7.3 0.00829 0.659 0.0166 1.32 0.0251 2 0.0174 1.44 0.0326 2.87 0.0458 4.31 0.021 2.28 0.048 4.56 0.0767 6.84 0.0598 4.85 0.112 9.7 0.163 14.6 0.0594 5.59 0.122 11.2 0.192 16.8 0.0263 2.23 0.0473 4.47 0.068 6.7-0.0872 16.4-0.0872 16.4 7.24 30.5 8.17 7.29 15.2 8.19 25.8 8.31 0.851 0.029 1.7 0.058 2.58 0.0879 7.3 0.0723 13.3-1.57 18.9-6.37 0.518-0.651 1.04-1.3 1.57-1.97 0.534-0.648 1.07-1.3 1.62-1.96 7.23-10.1 6.79-21.2 6.56-33.2-0.0188-1.99-0.0376-3.97-0.055-5.96-0.0455-4.84-0.114-9.68-0.192-14.5-0.0433-2.74-0.0758-5.48-0.0969-8.22-0.0206-2.56-0.0576-5.13-0.113-7.69-0.0627-10.8-0.0627-10.8 4.4-15.5 5.84-3.94 12.1-4.43 18.9-3.44 4.06 1.87 4.53 3.31 6.12 7.44 0.27 2.89 0.391 5.56 0.356 8.44 0.00204 0.827 0.00409 1.65 0.0062 2.51 3e-3 2.73-0.0155 5.46-0.0345 8.18-0.00306 1.92-0.00494 3.83-0.00568 5.75-0.0046 4.02-0.019 8.05-0.0412 12.1-0.028 5.1-0.0392 10.2-0.0437 15.3-0.00522 4.92-0.0197 9.84-0.0344 14.8-0.00188 0.912-0.00376 1.82-0.0057 2.76-0.0278 10.5-0.233 20.9-0.852 31.3-0.286 4.93-0.366 9.81-0.277 14.7-0.0941 2.99-0.962 5.41-2.07 8.17-0.678 2.33-1.34 4.66-2 7-0.374 1.31-0.749 2.63-1.12 3.94-0.289 1.01-0.578 2.02-0.875 3.06h-2c-0.249 0.888-0.498 1.78-0.754 2.69-3.57 9.48-12.6 15.7-21.2 20.3-3.67 1.64-7.34 2.64-11.2 3.56-3.68 0.615-3.68 0.615-6.75 2.44-2.57 0.244-5.11 0.428-7.69 0.562-1.14 0.0615-1.14 0.0615-2.31 0.124-19.7 0.992-19.7 0.992-22.9-0.659-2.51-1.2-4.55-1.45-7.32-1.7-0.993-0.106-1.99-0.213-3.01-0.322-2.07-0.208-4.14-0.406-6.22-0.594-6.65-0.735-10.5-2.01-15.6-6.41 0.298-7.13 1.71-12.7 5-19 4.08-0.186 6.42 0.135 10 2 7.49 2.14 14.9 2.5 22.7 2.74 2.11 0.0691 4.21 0.165 6.32 0.263 9.31 0.358 19.6 0.556 27.4-5.17 8.98-8.62 11.8-15.7 13.6-27.8 0.112-0.744 0.224-1.49 0.34-2.25 0.233-1.58 0.449-3.16 0.66-4.75-2.75 1.02-5.17 2.11-7.69 3.62-2.31 1.38-2.31 1.38-4.31 1.38-0.495 1.49-0.495 1.49-1 3-4.63 1.74-9.07 2.31-14 2.66-2.32 0.256-2.32 0.256-5.02 2.34-3 0.266-3 0.266-6.44 0.25-1.13 0.00516-2.27 0.0103-3.43 0.0156-3.04-0.258-4.5-0.861-7.13-2.27-1.41-0.0932-2.83-0.13-4.25-0.125-5.35-0.417-9.57-2.39-14.3-4.75-0.715-0.352-1.43-0.704-2.17-1.07-5.14-2.67-5.14-2.67-6.27-6.06-0.928-0.186-0.928-0.186-1.88-0.375-3.11-0.914-3.61-2.86-5.12-5.62-0.495-0.495-0.99-0.99-1.5-1.5-4.27-4.27-5.42-9.38-6.85-15.1-0.558-2.41-0.558-2.41-1.65-4.43-0.102-2.31-0.138-4.63-0.145-6.94-0.00336-0.714-0.00672-1.43-0.0102-2.16-0.00952-2.37-0.0115-4.74-0.0125-7.1-0.00321-1.64-0.00658-3.29-0.0101-4.93-0.00599-3.45-0.00784-6.9-0.00725-10.4 1.01e-4 -4.42-0.0135-8.84-0.0308-13.3-0.0111-3.4-0.0131-6.8-0.0126-10.2-0.00118-1.63-0.0056-3.26-0.0133-4.89-0.00982-2.28-0.00692-4.56-8.95e-4 -6.84-0.00143-1.3-0.00285-2.59-0.00432-3.93 0.239-3.29 0.732-5.49 2.25-8.4 7.57-5.7 15.3-6.62 24-3z" fill="#00276C"/>
<path transform="translate(972 434)" d="m0 0c0.864-0.00387 1.73-0.00773 2.62-0.0117 12.6 0.0191 22.8 3.38 33.4 10.1 1.02 0.65 1.02 0.65 2.06 1.31 7.31 5.47 12.7 14.9 14.3 23.9 0.746 7.57-0.0543 13.9-3.39 20.8-0.342 0.722-0.683 1.44-1.04 2.19-3.89 6.87-9.67 11.4-17.2 13.8-2.08 0.5-4.18 0.959-6.29 1.36-2.63 0.418-2.63 0.418-4.47 2.61-1.81 0.395-1.81 0.395-4.07 0.598-1.29 0.118-1.29 0.118-2.61 0.239-0.951 0.0746-1.9 0.149-2.88 0.226-1.48 0.124-1.48 0.124-2.99 0.25-14.5 1.11-29 1.36-43.4 1.69-1.21 2.42-0.946 3.48-0.562 6.12 0.186 1.28 0.371 2.56 0.562 3.88h2c0.474 0.825 0.949 1.65 1.44 2.5 3.73 5.78 9.78 10.1 16.2 12.5 15.3 3.07 35.5 3.13 49.5-4.25 1.84-0.707 1.84-0.707 4.84 0.293 1.37 2.24 2.55 4.4 3.69 6.75 0.32 0.621 0.641 1.24 0.971 1.88 1.78 3.59 2.75 6.35 2.34 10.4-6.78 4.25-12.6 6.71-20.6 7.58-2.61 0.211-2.61 0.211-4.43 2.42-7.92 1.45-16.3 1.12-24.4 1.19-0.939 0.0131-1.88 0.0261-2.84 0.0396-5.31 0.00662-9.71-0.487-14.8-2.23-0.976-0.284-1.95-0.567-2.96-0.859-6.84-2.13-13.4-4.67-19-9.14-0.33-0.99-0.66-1.98-1-3-0.607-0.15-1.21-0.299-1.84-0.453-4.97-1.26-8.36-7.36-11.1-11.4-1.06-2.12-1.06-2.12-1.06-4.12h-2c-0.277-0.71-0.554-1.42-0.84-2.15-0.543-1.38-0.543-1.38-1.1-2.79-0.36-0.917-0.719-1.83-1.09-2.78-0.772-2.21-0.772-2.21-1.97-3.29-0.472-4.01-0.712-8.05-0.985-12.1-0.138-2.02-0.289-4.03-0.441-6.04-0.0889-1.28-0.178-2.56-0.27-3.88-0.0827-1.17-0.165-2.34-0.25-3.55-0.215-13.7 5.36-29 14.4-39.3 0.825-0.722 1.65-1.44 2.5-2.19 1.07-1.1 2.13-2.2 3.19-3.31 2.81-2.69 2.81-2.69 4.81-2.69v-2c5.38-4.29 11.8-6.89 18.2-9.31 0.665-0.254 1.33-0.509 2.01-0.771 7.54-2.75 14.8-3.08 22.8-3.04z" fill="#00276C"/>
<path transform="translate(969 214)" d="m0 0c3.28 1.75 6.47 3.59 9.65 5.53 3.51 2.11 7.03 4.19 10.6 6.25 3.13 1.82 6.27 3.65 9.39 5.48 5.81 3.4 11.6 6.76 17.5 10.1 4.52 2.58 9 5.22 13.5 7.87 6.88 4.07 13.8 8.02 20.8 11.9 13.4 7.57 13.4 7.57 18.9 10.9 0.953 0.567 1.91 1.13 2.89 1.72 4.71 3.46 7.06 7.18 8.24 12.8 0.398 4.21-1.35 7.14-3.31 10.7-3.79 3.41-7.46 4.17-12.5 4.25-8.9-1.66-17.3-8.15-25-12.8-7.41-4.47-14.9-8.75-22.6-12.8-2.47-1.46-2.47-1.46-4.81-3.39-3.25-2.52-6.65-4.18-10.4-5.94-5.47-2.67-10.7-5.46-15.9-8.67-4.37-2.65-8.89-5.04-13.4-7.45v-2c-0.66-0.0825-1.32-0.165-2-0.25-2.87-0.718-4.26-1.56-6.69-3.12-2.66-1.37-3.75-1.78-6.66-0.984-2.64 1.33-5.13 2.8-7.65 4.36-1.79 0.966-3.58 1.92-5.38 2.88-3.79 2.08-7.53 4.24-11.2 6.44-4.78 2.81-9.64 5.43-14.6 8-6.72 3.51-13.3 7.27-19.8 11.2-5.04 3-10.2 5.67-15.5 8.23-3.05 1.54-5.91 3.29-8.78 5.15-2.87 1.84-5.83 3.48-8.8 5.15-1.64 1.08-1.64 1.08-3.31 2.19-4.96 2.79-10.5 3.69-16 2.18-3.53-1.55-5.4-2.97-7.69-6.12-1.43-4.64-1.76-8.76-0.312-13.5 4.76-6.35 13.3-10.4 20.3-13.8 0.686-0.353 1.37-0.706 2.08-1.07 0.717-0.369 1.43-0.737 2.17-1.12 0.665-0.344 1.33-0.688 2.02-1.04 1.73-0.77 1.73-0.77 3.73-0.77v-2c0.846-0.413 1.69-0.825 2.56-1.25 2.45-1.25 4.77-2.53 7.12-3.94 3.31-1.81 3.31-1.81 6.31-1.81v-2c0.669-0.317 1.34-0.634 2.03-0.961 7.11-3.46 13.9-7.3 20.7-11.4 5.13-3.05 10.4-5.78 15.7-8.39 3.01-1.52 5.81-3.24 8.63-5.07 2.9-1.83 5.91-3.45 8.91-5.1 1.55-0.858 3.07-1.76 4.59-2.68 0.804-0.474 1.61-0.949 2.44-1.44 0.57-0.353 1.14-0.706 1.73-1.07 6.67-3.8 12.5-4.59 19.6-1.46z" fill="#DE1F1E"/>
<path transform="translate(968 280)" d="m0 0c2.44 1.33 4.8 2.74 7.17 4.21 1.6 0.964 3.21 1.93 4.81 2.89 1.18 0.714 1.18 0.714 2.38 1.44 3.09 1.84 6.24 3.58 9.4 5.32 2.36 1.31 4.68 2.69 6.98 4.1 7.12 4.29 14.3 8.23 21.8 11.8 2.14 1.2 3.48 2.45 5.16 4.21 1.97 1.05 3.98 2.05 6 3 1.46 0.726 2.92 1.46 4.38 2.19l2.09 1.04c0.508 0.254 1.02 0.508 1.54 0.77v2c0.776 0.21 1.55 0.42 2.35 0.637 5 1.87 9.42 4.5 14 7.18 0.908 0.521 1.82 1.04 2.75 1.58 18.6 10.7 18.6 10.7 20.9 17.6 0.658 4.94 0.576 8.09-2.12 12.4-3.52 3.21-6.53 5.19-11.2 6.06-3.95-0.659-7.13-2.54-10.6-4.44-1.01-0.495-2.02-0.99-3.06-1.5-3.38-1.73-6.65-3.59-9.94-5.5v-2c-2.97-0.99-5.94-1.98-9-3v-2c-0.784-0.144-1.57-0.289-2.38-0.438-2.62-0.562-2.62-0.562-4.62-1.56v-2c-0.99-0.227-1.98-0.454-3-0.688-3.82-1.08-6.82-2.9-10.1-5.09-1.91-1.23-3.85-2.24-5.89-3.22v-2c-0.592-0.17-1.18-0.34-1.79-0.516-4.94-1.51-8.22-3.13-12.2-6.48-2.3-1.14-4.61-2.06-7-3v-2c-0.701-0.0825-1.4-0.165-2.12-0.25-3.57-0.931-5.86-2.64-8.88-4.75-7.95-5.16-7.95-5.16-16.9-6.88-7.77 2.13-7.77 2.13-14.1 6.88-4.22 2.41-8.49 3.85-13.1 5.16-0.612 0.278-1.22 0.557-1.86 0.844-0.33 0.99-0.66 1.98-1 3-1.97 1.21-1.97 1.21-4.5 2.38-4.96 2.35-9.72 4.93-14.5 7.62-1.5 0.834-3 1.67-4.5 2.5-0.74 0.411-1.48 0.822-2.24 1.25-1.53 0.847-3.05 1.69-4.58 2.54-2.23 1.24-4.45 2.47-6.68 3.71-0.63 0.351-1.26 0.701-1.91 1.06-2.8 1.57-5.49 3.21-8.15 5-10.5 6.94-10.5 6.94-15.9 6.94-0.33 0.99-0.66 1.98-1 3-6.81 3.23-14.1 4.18-21.3 2-3.72-2.77-4.84-5.5-5.69-10-0.255-4.21 0.39-7.2 3-10.6 7.77-6.15 16.3-10.8 25-15.4 9.05-4.81 9.05-4.81 18.1-9.68 0.672-0.367 1.34-0.733 2.04-1.11 1.97-1.13 1.97-1.13 3.91-2.71 2.78-2 5.7-2.61 8.99-3.43v-2c1.13-0.557 2.27-1.11 3.44-1.69 3.79-1.89 7.49-3.91 11.2-5.98 2.45-1.37 4.92-2.69 7.39-4.02 4.1-2.22 8.12-4.56 12.1-6.95 6.08-3.62 12.2-7.22 18.4-10.6 1.58-0.857 1.58-0.857 3.19-1.73 4.99-1.66 8.84-1.19 13.5 0.962z" fill="#00276C"/>
<path transform="translate(704 466)" d="m0 0c9.07 8.43 12.7 18.3 13.2 30.3 0.0143 1.79 0.0182 3.58 0.0117 5.36 0.0161 0.898 0.0322 1.8 0.0488 2.72 0.00685 9.36-3.48 16.4-9.36 23.6-8.33 7.99-16.5 10.6-27.8 10.5-0.971-0.00209-1.94-0.00419-2.94-0.00635-7.29-0.16-13.1-1.38-19.2-5.49-1.49-0.99-1.49-0.99-3-2v-2c-0.596-0.0773-1.19-0.155-1.8-0.234-2.94-1.02-3.67-2.41-5.32-5.02-0.498-0.768-0.995-1.54-1.51-2.33-1.38-2.44-2.4-4.8-3.37-7.42-0.362-0.927-0.724-1.85-1.1-2.81-3.54-12.5-0.612-24.7 5.55-35.8 4.3-6.89 8.89-11.2 16.7-13.7 2.13-0.703 2.13-0.703 4.83-2.68 12.6-2.46 24.3 0.0745 35.1 7z" fill="#FDFDFE"/>
<path transform="translate(826 459)" d="m0 0c0.777-0.0206 1.55-0.0412 2.36-0.0625 9.59-0.0645 17.2 4.69 24.8 10.3 2.22 2.4 4 4.6 4 8h2c1.55 2.65 2.35 5.22 3.06 8.19 0.531 3.58 0.531 3.58 1.94 4.81 1.34 12.2 0.712 23.8-6.46 34.1-5.6 6.94-12.5 12.5-21.5 13.9-11.5 0.874-21.7 0.887-32-5-1.13-0.598-2.27-1.2-3.44-1.81-3.38-2.89-5.61-6.2-7.56-10.2v-2h-2c-0.121-0.615-0.242-1.23-0.367-1.86-0.168-0.808-0.335-1.62-0.508-2.45-0.162-0.801-0.325-1.6-0.492-2.43-0.578-2.51-0.578-2.51-2.63-5.26-0.223-2.63-0.324-5.12-0.312-7.75-0.0161-0.691-0.0322-1.38-0.0488-2.09-0.00481-5.12 1.13-8.56 3.36-13.2 0.526-1.67 0.526-1.67 1.06-3.38 0.938-2.62 0.938-2.62 2.94-3.62 0.371-0.866 0.742-1.73 1.12-2.62 2.46-4.43 5.72-7.48 9.88-10.4 1.32-0.37 2.66-0.711 4-1 0.474-0.495 0.949-0.99 1.44-1.5 3.78-3.63 10.5-2.72 15.4-2.75z" fill="#FDFDFE"/>
<path transform="translate(983,629)" d="m0 0c4.77 5.04 6.41 10.2 6.27 17-0.414 3.02-1.72 5.38-3.27 7.97h-2c-0.33 0.99-0.66 1.98-1 3h-2c1.08 2.76 2.01 4.01 4.38 5.88 4.27 3.46 6.29 6.63 7.5 12 0.45 5.9-0.777 10.4-3.94 15.4-4.12 4.5-10.1 6.41-15.9 7.75-0.797 0.256-0.797 0.256-1.61 0.518-3.51 0.709-7.02 0.645-10.6 0.65-1.18 0.00499-1.18 0.00499-2.39 0.0101-1.66 0.00505-3.33 0.00741-4.99 0.00725-2.55 0.0022-5.1 0.0204-7.65 0.0393-1.62 0.00293-3.23 0.00492-4.85 0.00586-0.765 0.00719-1.53 0.0144-2.32 0.0218-5.38-0.0234-5.38-0.0234-7.61-2.25-0.267-2.83-0.267-2.83-0.291-6.5-0.00672-0.667-0.0134-1.33-0.0204-2.02-0.019-2.21-0.0229-4.42-0.0251-6.63-0.00642-1.53-0.0132-3.07-0.0202-4.6-0.012-3.22-0.0157-6.44-0.0145-9.66 2.03e-4 -4.13-0.0271-8.25-0.0615-12.4-0.0222-3.17-0.0263-6.34-0.0252-9.51-0.00236-1.52-0.0112-3.04-0.0267-4.56-0.0196-2.13-0.0138-4.26-0.00179-6.38-0.00285-1.21-0.0057-2.42-0.00864-3.67 0.594-3.71 1.51-4.87 4.49-7.09 2.67-0.656 4.98-1.06 7.69-1.31 0.743-0.0763 1.49-0.153 2.25-0.231 12.7-1.13 27.4-1.37 38.1 6.54z" fill="#DE1F1E"/>
<path transform="translate(516,420)" d="m0 0c2.32 0.156 2.32 0.156 5 1 1.55 2.34 1.55 2.34 2.88 5.5 0.501 1.17 1 2.35 1.52 3.56 0.536 1.31 1.07 2.63 1.61 3.94 0.586 1.41 1.17 2.82 1.76 4.22 1.5 3.59 2.97 7.2 4.43 10.8 1.13 2.77 2.28 5.53 3.43 8.29 0.588 1.41 0.588 1.41 1.19 2.85 0.831 1.99 1.66 3.97 2.5 5.96 1.24 2.96 2.47 5.91 3.69 8.88 0.312 0.754 0.624 1.51 0.945 2.29 1.68 4.24 2.41 8.22 3.05 12.7 0.99 0.495 0.99 0.495 2 1-6.89 0.813-13.7 1.15-20.6 1.13-1.46 0.00144-1.46 0.00144-2.94 0.0029-2.03 6.75e-4 -4.07-0.00113-6.1-0.00534-3.1-0.00538-6.21-2.15e-5 -9.31 0.00635-1.99-6.6e-4 -3.97-0.00194-5.96-0.00391-1.38 0.00304-1.38 0.00304-2.79 0.00613-4.54-0.0165-8.81-0.212-13.3-1.14-1.02-2.63-1.19-4.44-0.281-7.12 1.48-3.31 3.1-6.53 4.78-9.75 1.54-3.2 2.69-6.39 3.82-9.75 2.03-5.8 4.45-11.2 7.27-16.6 1.98-3.85 3.7-7.78 5.41-11.8 0.773-1.73 0.773-1.73 1.56-3.5 1.69-4.11 3.09-8.27 4.44-12.5z" fill="#FDFDFE"/>
<path transform="translate(991,460)" d="m0 0c3.61 3.18 5.64 6.18 6.58 10.9 0.287 5.21 0.0793 9.02-3.33 13.1-1.05 1.01-2.13 2-3.25 2.94-0.639 0.598-1.28 1.2-1.94 1.81-11 6.33-25.8 5.35-38 4.89-2.15-0.0791-4.29-0.146-6.44-0.211-10.5-0.355-10.5-0.355-11.6-1.49 0.0448-5.94 0.882-10.9 4-16 0.351-0.625 0.701-1.25 1.06-1.89 4.17-7.17 9.15-12.9 16.9-16.1 0.846-0.371 1.69-0.743 2.56-1.12 10.4-3.74 24.2-3.28 33.4 3.12z" fill="#FDFDFE"/>
<path transform="translate(1041 648)" d="m0 0c5.18 4.59 7.71 9.86 8.17 16.8 0.171 5.07 0.0673 10.1-0.043 15.2-0.0165 1.78-0.0309 3.55-0.043 5.33-0.135 12.9-0.135 12.9-1.33 14.1-14.4 1.59-31.1 3.4-43.9-4.23-3.69-3.16-4.98-5.82-5.44-10.6 0.258-5.71 2.05-9.77 6.06-13.9 7.62-5.65 15.2-5.64 24.3-5.44 1.16 0.0135 2.31 0.0271 3.5 0.041 2.83 0.0351 5.66 0.0843 8.5 0.146-0.434-1.43-0.879-2.85-1.33-4.28-0.247-0.794-0.493-1.59-0.747-2.41-1.26-3.16-2.82-5.22-5.5-7.29-7.82-3.3-19.5-1.65-27.4 0.977 0.325-3 0.58-4.58 2.75-6.75 9.99-5.55 22.9-2.31 32.5 2.31z" fill="#DE1F1E"/>
<path transform="translate(766 645)" d="m0 0c5 2.45 7.22 5.28 9.42 10.3 2.18 7.9 1.96 16 1.95 24.1 0.00221 2.08 0.0205 4.16 0.0393 6.24 0.00193 1.31 0.00387 2.62 0.00586 3.97 0.00411 1.2 0.00822 2.39 0.0125 3.62-0.243 2.85-0.243 2.85-2.24 4.85-5.64 1.52-11.5 1.22-17.2 1.25-1.09 0.0206-2.19 0.0412-3.32 0.0625-8.54 0.0409-16.1-0.885-22.9-6.38-0.65-0.507-1.3-1.01-1.97-1.54-2.08-1.91-2.5-3.01-2.73-5.83-0.104-6.39 0.12-10.2 4.57-15.1 7.1-6.58 16.1-6 25.2-5.76 1.29 0.018 2.59 0.0361 3.92 0.0547 3.17 0.0468 6.34 0.112 9.51 0.195-0.78-1.62-1.57-3.23-2.36-4.84-0.656-1.35-0.656-1.35-1.32-2.72-1.43-2.63-3.09-4.45-5.32-6.43v-2c-3.19 0.14-6.38 0.288-9.56 0.438-0.895 0.0393-1.79 0.0786-2.71 0.119-4.97 0.237-9.81 0.642-14.7 1.44 0.125-2.31 0.125-2.31 1-5 8.53-5.55 21.6-4.37 30.8-1.12z" fill="#DE1F1E"/>
<path transform="translate(510 624)" d="m0 0c1.14 0.217 1.14 0.217 2.31 0.438 2.28 3.42 2.34 4.96 2.56 9 0.108 1.88 0.108 1.88 0.219 3.8 0.0522 1.02 0.0522 1.02 0.105 2.06 0.116 2.2 0.254 4.39 0.395 6.58 0.557 9.05 0.77 18 0.699 27.1-0.0411 8.51 0.445 17 1.02 25.5-3 1-3 1-5.14 0.448-1.86-1.45-1.86-1.45-2.48-4.16-0.0565-1.14-0.113-2.28-0.171-3.46-0.0723-1.28-0.145-2.55-0.219-3.87-0.0589-1.38-0.117-2.77-0.176-4.15-0.0731-1.41-0.148-2.81-0.224-4.22-0.222-4.2-0.409-8.4-0.588-12.6-0.0525-1.19-0.105-2.39-0.159-3.62-0.373-8.58-0.373-8.58-0.5-12.2-0.163-4.46-0.468-8.74-1.34-13.1-2.87 2.5-4.28 5.23-5.94 8.62-0.525 1.07-1.05 2.15-1.59 3.25-1.2 2.55-2.36 5.1-3.47 7.68-1.92 4.41-4.21 8.58-6.55 12.8-1.29 2.36-2.48 4.73-3.64 7.15-1.51 2.91-2.39 4.47-4.81 6.5-3.41 0-4.87-0.9-7.56-3-2.06-2.54-3.07-4.18-4.29-7.11-2.1-4.86-4.48-9.53-6.96-14.2-0.435-0.822-0.87-1.64-1.32-2.49-5.48-11.3-5.48-11.3-12.9-21.2 0.00524 0.638 0.0105 1.28 0.0159 1.93 0.153 21.6 0.153 21.6-0.453 31.9-0.0392 0.7-0.0785 1.4-0.119 2.12-0.312 4.74-0.312 4.74-1.44 7-0.0313 3.74 0.0678 7.47 0.16 11.2-0.155 3.68-0.812 6.39-2.16 9.8-2.17-0.506-4-1-6-2 0.559-13.1 1.19-26.2 1.87-39.3 0.0868-1.69 0.173-3.38 0.258-5.07 0.122-2.42 0.247-4.83 0.373-7.25 0.0354-0.715 0.0708-1.43 0.107-2.17 0.198-3.72 0.467-7.44 0.818-11.1 0.0687-0.735 0.137-1.47 0.208-2.23 0.366-1.87 0.366-1.87 2.05-3.94 3.12-1.26 4.98-1.56 8.31-0.938 3.02 4 5.26 8.32 7.44 12.8 0.69 1.39 1.38 2.79 2.07 4.18 0.386 0.777 0.772 1.55 1.17 2.35 0.435 0.876 0.87 1.75 1.32 2.65 0.519 1.05 1.04 2.09 1.57 3.17 1.71 3.43 3.44 6.85 5.18 10.3 0.555 1.12 1.11 2.24 1.68 3.4 0.533 1.04 1.07 2.09 1.62 3.16 0.473 0.94 0.946 1.88 1.43 2.85 1.33 2.32 1.33 2.32 3.71 2.97 0.599 0.0618 1.2 0.124 1.82 0.187 0.248-0.825 0.495-1.65 0.75-2.5 2.9-8.12 7.42-15.7 11.5-23.3 1.93-3.64 3.84-7.28 5.6-11 0.496-1.05 0.993-2.1 1.5-3.18 0.409-0.896 0.817-1.79 1.24-2.71 2.26-3.66 4.84-6.09 9.14-6.79z" fill="#DE1F1E"/>
<path transform="translate(892,646)" d="m0 0c3.58 3.12 5.82 6.51 6.17 11.3 0.00967 1.29 0.00967 1.29 0.0195 2.6 0.0142 0.855 0.0284 1.71 0.043 2.59-0.34 3.65-1.31 5.63-4.02 8.11-10.9 7.14-24.6 6.81-37.2 6.37-0.789 1.79-0.789 1.79-1 4 3.02 5.03 7.41 9.17 13 11 7.2 1.19 14.7 2.2 21-2 2.19 0.375 2.19 0.375 4 1v4c-0.763 0.289-1.53 0.577-2.31 0.875-2.84 1.09-2.84 1.09-5.69 3.12-11 1.17-20.9 0.914-30-6-4.94-4.88-7.64-10.2-8.3-17.2-0.0228-6.33 0.0995-11.2 3.3-16.8 0.51-0.982 0.51-0.982 1.03-1.98 3.31-5.96 7.66-10.4 14.1-12.8 8.51-2.17 17.9-2.4 25.8 1.81z" fill="#DE1F1E"/>
<path transform="translate(568 653)" d="m0 0c4.1 3.12 6.32 6.57 7.88 11.4 0.307 2.84 0.325 5.65 0.312 8.5 0.0161 0.746 0.0322 1.49 0.0488 2.26 0.00509 5.75-1.22 8.96-5.23 13.2-0.663 0.583-1.33 1.17-2.01 1.77-0.986 0.889-0.986 0.889-1.99 1.8-5.13 3.5-11.6 2.83-17.5 1.95-6.09-2.52-11-7.03-14.6-12.5-1.66-6.66-2.46-14.3 0.875-20.4 0.701-0.846 1.4-1.69 2.12-2.56 0.289-0.701 0.577-1.4 0.875-2.12 1.99-3.31 5.35-5.31 9-6.46 7.52-1.45 13.7-0.97 20.3 3.16z" fill="#FDFDFE"/>
<path transform="translate(706 654)" d="m0 0c4.7 4.05 7.16 9.36 7.95 15.4 0.388 7.26-1.47 14.1-5.71 20-4.91 4.68-10.8 4.79-17.3 4.68-6.36-0.388-10.9-1.92-15.3-6.71-4.81-5.69-5.85-11.4-5.55-18.8 1.11-6.46 4.5-11.1 8.93-15.7 8.74-4.99 18.7-4.74 26.9 1.05z" fill="#FDFDFE"/>
<path transform="translate(825 651)" d="m0 0c5.03 4.19 7.86 8.48 9.18 14.9 0.672 7.8 0.909 13.1-3.69 19.6-1.91 2.01-3.7 3.4-6 5h-2v2c-17.2 0.743-17.2 0.743-23-4-0.722-0.557-1.44-1.11-2.19-1.69-5.58-7.12-6.2-13.1-5.56-22.1 0.861-3.71 2.18-5.47 4.75-8.23 0.742-0.866 1.49-1.73 2.25-2.62 7.17-6.19 17.8-7.76 26.3-2.95z" fill="#FDFDFE"/>
<path transform="translate(830 647)" d="m0 0c7.85 6.29 9.83 13.4 11 23.1 0.603 5.84 1.2 11.6 0.75 17.5-0.0799 1.17-0.16 2.35-0.242 3.55-0.971 10-3.28 16.7-10.9 23.4-6.61 4.74-12.1 5.26-20.1 5.31-0.813 0.0206-1.63 0.0412-2.46 0.0625-5.96 0.0379-10.8-1.11-16.3-3.31 0.33-1.32 0.66-2.64 1-4 3.01-0.934 3.87-1.04 7 0 3.81 0.257 7.62 0.231 11.4 0.25 1.05 0.0206 2.1 0.0412 3.18 0.0625 1.01 0.00516 2.02 0.0103 3.06 0.0156 0.924 0.00935 1.85 0.0187 2.8 0.0283 2.96-0.419 4.24-1.48 6.52-3.36h2c0.433-1.36 0.433-1.36 0.875-2.75 1.12-3.25 1.12-3.25 2.19-5.19 1.33-2.94 1.57-5.88 1.94-9.06-2.88 0.62-5.22 1.54-7.81 2.94-8.52 4.26-15 4.52-24.2 2.06-7.63-3.11-12.2-7.72-16-15-1.2-3.6-1.17-6.58-1.19-10.4-0.0142-1.31-0.0284-2.61-0.043-3.96 0.435-6.92 3.88-12.4 8.23-17.7 10.5-9.13 25.3-11.2 37.3-3.56zm-32 6.93c-0.742 0.866-1.49 1.73-2.25 2.62-0.684 0.73-1.37 1.46-2.07 2.21-3.63 5.25-3.29 11.6-2.93 17.8 1.91 6.49 6.43 11.3 12 15 3.76 1.25 7.27 1.11 11.2 1.06 0.75-0.00451 1.5-0.00902 2.27-0.0137 1.85-0.0118 3.69-0.0297 5.54-0.0488v-2c0.722-0.206 1.44-0.413 2.19-0.625 4.39-2.15 6.79-5.53 9.12-9.75 2.01-7.66 0.653-16-3.06-22.9-4.72-5.77-7.12-7.94-14.6-8.75-7.14-0.276-11.8 0.589-17.4 5.38z" fill="#DE1F1E"/>
<path transform="translate(710 648)" d="m0 0c3.55 2.98 5.71 6.17 7.75 10.3 0.534 1.08 1.07 2.16 1.62 3.27 2.16 5.93 1.87 12.2 1.83 18.5-0.0085 2.14 0.0203 4.27 0.052 6.41 0.0543 10.5-1.44 19.5-8.86 27.4-6.75 6.04-13.8 6.65-22.5 6.66-0.769 0.0122-1.54 0.0245-2.33 0.0371-5.88 0.0149-11.5-0.552-16.9-3.22 0.66-1.32 1.32-2.64 2-4h32v-2c0.763-0.681 1.53-1.36 2.31-2.06 3.98-4.36 5.52-9.14 5.88-15-0.0619-0.639-0.124-1.28-0.188-1.94-0.531 0.338-1.06 0.675-1.61 1.02-0.706 0.446-1.41 0.892-2.14 1.35-0.696 0.441-1.39 0.882-2.11 1.34-7.65 4.6-14.4 4.79-23.1 3.14-6.43-1.8-12.1-4.94-16-10.4-4.16-7.74-4.85-16.9-2.69-25.4 0.914-2.75 1.92-4.75 3.69-7.07 0.473-0.638 0.946-1.28 1.43-1.93 4.83-6.08 9.78-8.67 17.1-10.8 8.66-0.888 15 0.433 22.7 4.44zm-35.7 10.1c-4.22 6.42-4.72 12.7-3.59 20.2 1.89 6.08 5.62 10.7 11.1 14 7.07 2.52 15.6 2.59 22.7 0.0703 5.76-3.72 7.82-9.56 9.27-16 1.1-6.91-0.593-12.9-4-19-4.78-5.22-10.6-7.34-17.5-8.38-7.19 1.08-13.3 3.33-17.9 9.18z" fill="#DE1F1E"/>
<path transform="translate(948 663)" d="m0 0c1.07 0.00193 2.14 0.00387 3.24 0.00586 1.67 0.0184 1.67 0.0184 3.38 0.0371 1.64 9.67e-4 1.64 9.67e-4 3.3 0.00195 18.9 0.102 18.9 0.102 23.1 3.94 3.14 3.74 4.34 6.81 4.88 11.7-0.586 5.57-2.93 8.38-7.19 11.9-6.95 3.68-15.1 2.87-22.8 2.88-1.12 0.0122-2.24 0.0245-3.39 0.0371-1.62 0.0029-1.62 0.0029-3.27 0.00586-0.977 0.00411-1.95 0.00822-2.96 0.0125-2.75-0.243-2.75-0.243-7.75-2.24v-26c3.92-1.96 5.32-2.25 9.51-2.23z" fill="#FDFDFE"/>
<path transform="translate(1155,439)" d="m0 0c3.16 4.72 3.42 9.06 3.36 14.6 0.00307 1.26 0.00307 1.26 0.0062 2.55 3e-3 2.77-0.0155 5.53-0.0345 8.3-0.00306 1.94-0.00493 3.87-0.00568 5.81-0.0046 4.06-0.019 8.11-0.0412 12.2-0.0282 5.17-0.0392 10.3-0.0437 15.5-0.00519 4.96-0.0197 9.92-0.0344 14.9-0.00188 0.933-0.00376 1.87-0.0057 2.83-0.0256 9.84-0.115 19.6-1.2 29.4h-1c-1.21-9.03-2.17-17.9-2.06-27.1 0.0835-7.8-0.00722-15.6-0.25-23.4-0.0226-1.08-0.0453-2.17-0.0686-3.29-0.0354-1.02-0.0707-2.04-0.107-3.08-0.0262-0.905-0.0524-1.81-0.0793-2.74-0.506-2.86-1.64-4.21-3.43-6.45 0.294-1.34 0.628-2.68 1-4-0.288-2.25-0.288-2.25-2-4-4.01-1.57-7.7-2-12-2-0.134 1.3-0.268 2.61-0.406 3.95-0.517 4.66-1.27 9.25-2.09 13.9-1.22 7.05-2.09 14-2.5 21.2-0.99-0.33-1.98-0.66-3-1-0.0929-7.72-0.164-15.4-0.207-23.2-0.0208-3.58-0.0491-7.17-0.0945-10.8-0.0436-3.46-0.0674-6.92-0.0778-10.4-0.0109-1.96-0.0421-3.92-0.0737-5.87-0.0028-11.1-0.0028-11.1 4.45-15.8 6.96-4.59 14.4-4.96 22-2z" fill="#002B72"/>
<path transform="translate(910,525)" d="m0 0c2.93 2.93 4.46 6.52 6.37 10.2 2.85 4.94 6.17 8.49 10.6 12 0.846 0.674 1.69 1.35 2.56 2.04 2.1 1.53 4.08 2.7 6.44 3.77v-6h5v2c0.66 0.33 1.32 0.66 2 1-0.33 1.32-0.66 2.64-1 4h-4c1.98 0.334 3.96 0.667 5.94 1 1.1 0.186 2.2 0.371 3.34 0.562 2.43 0.464 2.43 0.464 3.72 0.438 1.34 0.324 2.67 0.657 4 1v2h15v-2c-0.99-0.66-1.98-1.32-3-2 4.97-0.913 9.03-0.913 14 0v1h-9c3.31 1.1 5.25 0.927 8.69 0.562 0.994-0.102 1.99-0.204 3.01-0.309 0.759-0.0838 1.52-0.168 2.3-0.254v-4h8c-0.495-2.97-0.495-2.97-1-6-3.07-1.02-5.02-1.08-8.23-0.992-1.03 0.0168-2.07 0.0335-3.13 0.0508-2.16 0.0438-4.31 0.0957-6.47 0.156-6.65 0.0907-12-0.605-18.2-3.21v-2c-0.99-0.33-1.98-0.66-3-1 3.26-1.09 5.34-0.745 8.69-0.271 13.9 1.63 29.9 1.6 42.5-5.02 1.84-0.707 1.84-0.707 4.84 0.293 1.37 2.24 2.55 4.4 3.69 6.75 0.32 0.621 0.641 1.24 0.971 1.88 1.78 3.59 2.75 6.35 2.34 10.4-6.78 4.25-12.6 6.71-20.6 7.58-2.61 0.211-2.61 0.211-4.43 2.42-7.92 1.45-16.3 1.12-24.4 1.19-1.41 0.0196-1.41 0.0196-2.84 0.0396-5.31 0.00662-9.71-0.487-14.8-2.23-0.976-0.284-1.95-0.567-2.96-0.859-6.84-2.13-13.4-4.67-19-9.14-0.33-0.99-0.66-1.98-1-3-0.607-0.15-1.21-0.299-1.84-0.453-4.97-1.26-8.36-7.36-11.1-11.4-1.06-2.12-1.06-2.12-1.06-4.12h-2c-0.66-2.31-1.32-4.62-2-7l1-1z" fill="#002B72"/>
<path transform="translate(952 629)" d="m0 0c1.39-0.0165 2.79-0.0436 4.18-0.082 9.74-0.267 16 0.556 23.3 7.18 2.11 4.47 2.46 9.25 1.5 14.1-2.04 3.11-4.18 4.39-7.44 6.19-2.88 0.349-5.35 0.494-8.21 0.426-1.15-0.00493-1.15-0.00493-2.32-0.00996-1.61-0.0104-3.22-0.0302-4.82-0.0591-2.47-0.0444-4.94-0.0615-7.41-0.0735-1.56-0.0134-3.13-0.0283-4.69-0.0449-0.742-0.00739-1.48-0.0148-2.25-0.0224-5.18-0.0975-5.18-0.0975-6.3-1.22-0.396-8.27-0.289-16.8 1-25 2.65-2.65 9.86-1.32 13.5-1.35z" fill="#FDFDFE"/>
<path transform="translate(572 648)" d="m0 0c5.63 4.75 9.61 9.14 11.3 16.5 0.0825 1.26 0.165 2.52 0.25 3.81 0.0748 0.922 0.15 1.84 0.227 2.79 0.354 7.35-0.636 12.4-5.23 18.2-2.15 2.33-4.4 4.19-7 6-0.549 0.414-1.1 0.828-1.66 1.25-6.65 4.2-14.8 3.48-22.3 2.75-7.73-1.78-14.8-7.29-19.2-13.8-3.14-6.86-3.12-16.1-0.82-23.1 1.2-2.5 2.51-4.78 4.05-7.09 0.373-0.584 0.745-1.17 1.13-1.77 3.64-5.01 9.4-8.36 15.4-9.85 8.6-1.29 16.7-0.819 23.9 4.36zm-32.4 6.27c-1.7 2.3-1.7 2.3-3 5-0.557 0.887-1.11 1.77-1.69 2.69-2.58 6.52-2.04 13.9 0.688 20.3 3.85 5.33 7.91 9.82 14.4 11.7 6.58 0.783 12.2 0.848 17.7-3.24 4.94-4.16 7.67-6.64 8.25-13.3 0.534-11.4 0.534-11.4-4.34-21.2-5.16-4.69-9.29-7.14-16.4-7.19-0.936-0.0142-1.87-0.0284-2.84-0.043-4.81 0.397-8.88 2.46-12.8 5.23z" fill="#DE1F1E"/>
<path transform="translate(890,315)" d="m0 0h4c-0.562 2.38-0.562 2.38-2 5-3.44 1.12-3.44 1.12-7 2-1.73 1.48-1.73 1.48-3 3-0.99 0.33-1.98 0.66-3 1-0.33 0.99-0.66 1.98-1 3-1.65 0.33-3.3 0.66-5 1-0.33 0.99-0.66 1.98-1 3-0.99 0.66-1.98 1.32-3 2-1.02 0.981-2.02 1.98-3 3l-2-1c-0.268 0.969-0.536 1.94-0.812 2.94-0.392 1.01-0.784 2.02-1.19 3.06-0.99 0.33-1.98 0.66-3 1v-2c-1.32 0.33-2.64 0.66-4 1-0.289 1.13-0.577 2.27-0.875 3.44-0.371 1.18-0.742 2.35-1.12 3.56l-2 1c0.33 0.99 0.66 1.98 1 3h7v-2h8v-3c0.784-0.268 1.57-0.536 2.38-0.812 2.91-1.04 2.91-1.04 4.62-4.19 2.75-0.914 2.75-0.914 6-1.62 4.12-0.856 4.12-0.856 8-2.38 0.495 1.49 0.495 1.49 1 3 0.908-0.33 1.82-0.66 2.75-1 3.25-1 3.25-1 7.25-1v-2l-4-2h3c0.495-1.49 0.495-1.49 1-3 0.99-0.33 1.98-0.66 3-1v2c0.33 0.33 0.66 0.66 1 1 1.91-0.102 1.91-0.102 4.06-0.438 1.3-0.186 2.6-0.371 3.94-0.562-3.03 3.38-5.91 5.07-10 7-3.02 1.63-6.01 3.32-9 5-0.634 0.353-1.27 0.706-1.92 1.07-2.79 1.57-5.48 3.2-8.14 4.99-10.5 6.94-10.5 6.94-15.9 6.94-0.33 0.99-0.66 1.98-1 3-6.81 3.23-14.1 4.18-21.3 2-3.72-2.77-4.84-5.5-5.69-10-0.255-4.21 0.39-7.2 3-10.6 7.77-6.15 16.3-10.8 25-15.4 9.11-4.84 9.11-4.84 18.2-9.75 0.695-0.378 1.39-0.757 2.11-1.15 1.87-1.06 1.87-1.06 3.71-3.05z" fill="#002B72"/>
<path transform="translate(1122,629)" d="m0 0c1.32 0.66 2.64 1.32 4 2-0.33 10.6-0.66 21.1-1 32h2c0.33 0.66 0.66 1.32 1 2 0.664-0.41 1.33-0.82 2.01-1.24 0.883-0.539 1.77-1.08 2.68-1.63 0.87-0.534 1.74-1.07 2.64-1.62 2.51-1.41 4.98-2.51 7.68-3.51v-2c1.39-0.65 1.39-0.65 2.81-1.31 3.07-1.4 3.07-1.4 4.53-3.12 2.21-2.09 4.56-3.04 7.34-4.25 1.49-0.655 1.49-0.655 3.01-1.32 0.759-0.326 1.52-0.652 2.3-0.988 0.495 2.48 0.495 2.48 1 5-3.54 3.05-6.92 5.7-11 8-0.866 0.557-1.73 1.11-2.62 1.69-2.38 1.31-2.38 1.31-5.38 1.31-0.309 0.897-0.309 0.897-0.625 1.81-1.88 3-4.19 3.8-7.38 5.19 1.33 3.99 3.98 5.49 7.25 7.88 4.26 3.13 8.07 6.31 11.8 10.1 1.07 1.02 1.07 1.02 2.17 2.06 0.666 0.639 1.33 1.28 2.02 1.94 1.01 0.959 1.01 0.959 2.04 1.94 1.93 2.25 2.83 4.27 3.77 7.06-10.4 0-17.6-9.5-24.8-16-4.36-3.83-9-6.48-14.2-8.98-1.28 2.56-1.11 4.37-1.1 7.23 0.00322 1.03 0.00645 2.06 0.00977 3.12 0.00838 1.08 0.0168 2.16 0.0254 3.27 0.00451 1.09 0.00902 2.18 0.0137 3.3 0.0118 2.69 0.0283 5.39 0.0488 8.08-2.38 0.625-2.38 0.625-5 1-2.75-2.75-2.26-4.3-2.27-8.15-0.00953-1.29-0.0191-2.58-0.0289-3.91 2.61e-4 -1.42 0.0012-2.83 0.00276-4.25-0.00389-1.45-0.00822-2.89-0.013-4.34-0.00747-3.04-0.00717-6.07-0.00191-9.11 0.00579-3.89-0.0111-7.78-0.0343-11.7-0.0147-2.99-0.0156-5.98-0.0125-8.97-5.14e-4 -1.43-0.00576-2.87-0.0158-4.3-0.0123-2.01-0.00365-4.01 0.00601-6.02-6.29e-4 -1.14-0.00126-2.28-0.00191-3.46 0.374-2.81 0.374-2.81 1.9-4.71 0.487-0.366 0.975-0.731 1.48-1.11z" fill="#DE1F1E"/>
<path transform="translate(640,381)" d="m0 0c1.64 3.28 1.12 6.91 1.1 10.5-0.00141 0.841-0.00283 1.68-0.00429 2.55-0.00561 2.69-0.0182 5.38-0.0309 8.07-0.00501 1.82-0.00958 3.64-0.0137 5.46-0.011 4.47-0.0283 8.94-0.0488 13.4-3.8-2.53-4.45-4.78-6-9v-3h-2c-0.121-1.13-0.242-2.26-0.367-3.43-0.169-1.48-0.338-2.96-0.508-4.45-0.0786-0.746-0.157-1.49-0.238-2.26-0.395-4.39-0.395-4.39-2.89-7.86-2.69-0.27-5.29-0.0874-8 0-0.204 5.51 0.33 10.3 1.56 15.7 0.438 2.3 0.438 2.3 0.438 6.3h-2c-0.0606 0.843-0.121 1.69-0.184 2.55-0.0838 1.1-0.168 2.19-0.254 3.32-0.0812 1.09-0.162 2.18-0.246 3.3-0.316 2.82-0.316 2.82-1.32 4.82-1.28 9.27-1.24 18.7-1.45 28.1-0.296 13.7-0.667 27.3-1.55 40.9h-2c-1.73-3.45-1.16-7.45-1.16-11.2-0.00496-0.96-0.00993-1.92-0.015-2.91-0.0147-3.19-0.0214-6.38-0.0269-9.56-0.00575-2.22-0.0115-4.43-0.0173-6.65-0.0105-4.65-0.0164-9.31-0.0198-14-0.00547-5.95-0.0295-11.9-0.058-17.8-0.0187-4.58-0.0238-9.16-0.0254-13.7-0.00302-2.19-0.011-4.38-0.0242-6.57-0.0172-3.08-0.0152-6.15-0.00869-9.23-0.0138-1.34-0.0138-1.34-0.0279-2.72 0.0398-6.09 0.752-12 3.38-17.6 6.36-5.69 16.2-5.12 24-3z" fill="#002B72"/>
<path transform="translate(967 434)" d="m0 0c1.3 0.0135 1.3 0.0135 2.62 0.0273 0.641 0.0116 1.28 0.0232 1.94 0.0352 0.495 1.49 0.495 1.49 1 3-5.75 2-5.75 2-8 2v2l-2 1v4c1.05 0.227 2.1 0.454 3.19 0.688 4.01 1.12 5.96 3.31 8.81 6.31 2.67 1.32 2.67 1.32 5 2-0.66 0.66-1.32 1.32-2 2-2.34-0.27-4.68-0.613-7-1-5.83-0.38-12.2 0.241-17.2 3.44-0.866 0.773-0.866 0.773-1.75 1.56-0.763 0.392-1.53 0.784-2.31 1.19-6.88 4.64-12.1 11.9-14.7 19.8-0.33 3.3-0.66 6.6-1 10 10.2 0.33 20.5 0.66 31 1 0.33 0.99 0.66 1.98 1 3-3.54 0.338-7.08 0.669-10.6 1-0.999 0.0954-2 0.191-3.03 0.289-14 1.3-14 1.3-19.3-1.29-2.03-2.03-1.5-5.9-1.69-8.69-0.0599-0.708-0.12-1.42-0.182-2.15-0.305-4.53 0.109-7.88 1.87-12.2h2c1.07-2 1.95-3.68 2.31-5.94 1.04-3.12 3.36-4.8 5.69-7.06 2.48-3.54 2.08-6.77 2-11 0.33-0.66 0.66-1.32 1-2-1.65 0.33-3.3 0.66-5 1-0.33 1.32-0.66 2.64-1 4-1.98-0.66-3.96-1.32-6-2-0.371 0.474-0.742 0.949-1.12 1.44-2.5 2.08-4.69 2.21-7.88 2.56v2h-2c-0.103 0.619-0.206 1.24-0.312 1.88-0.688 2.12-0.688 2.12-3.69 4.12-1.06 1.97-2.07 3.97-3 6h-2v3h-2c1.02-6.93 3.94-11.3 9-16 1.06-1.1 2.13-2.21 3.19-3.31 2.81-2.69 2.81-2.69 4.81-2.69v-2c5.38-4.29 11.8-6.89 18.2-9.31 0.665-0.254 1.33-0.509 2.01-0.771 6-2.19 11.8-3.07 18.2-2.98z" fill="#002B72"/>
<path transform="translate(1101 647)" d="m0 0c6.04 5.32 7.9 10.7 8.56 18.5 0.629 10.7 0.757 21.5-0.621 32.2-1.81 0.625-1.81 0.625-4 1-0.99-0.66-1.98-1.32-3-2-0.401-2.93-0.401-2.93-0.441-6.66-0.0132-0.664-0.0264-1.33-0.04-2.01-0.0409-2.13-0.0625-4.26-0.0811-6.39 0.848-14.1 0.848-14.1-3.89-26.5-1.47-1.2-3-2.32-4.54-3.43v-2c-2.9 0.0602-5.79 0.147-8.69 0.25-1.22 0.0213-1.22 0.0213-2.47 0.043-5.17 0.209-8.16 0.745-11.8 4.71-3.29 4.32-3.44 8.26-3.44 13.5-0.0132 0.809-0.0264 1.62-0.04 2.45-0.0408 2.57-0.0625 5.15-0.0811 7.72-0.0238 2.59-0.0518 5.17-0.0918 7.76-0.0244 1.61-0.0392 3.21-0.0436 4.82-0.0775 5.52-0.0775 5.52-2.3 7.74-2 0-2 0-4-1-1.92-4.49-2.21-8.27-2.08-13.1 0.0179-0.663 0.0358-1.33 0.0543-2.01 0.041-1.39 0.0875-2.79 0.139-4.18 0.0756-2.12 0.125-4.23 0.172-6.35 0.0433-1.36 0.0882-2.73 0.135-4.09 0.0389-1.22 0.0778-2.45 0.118-3.71 0.795-6.07 3.15-11.1 7.46-15.5 2.25-0.812 2.25-0.812 4-1v-2c9.55-4.21 22.1-4.67 31.1 1.29z" fill="#DE1F1E"/>
<path transform="translate(755 670)" d="m0 0c1.63 0.0609 1.63 0.0609 3.3 0.123 7.86 0.404 7.86 0.404 10.3 2.08 1.51 2.22 1.53 3.52 1.48 6.19-0.0145 1.27-0.0145 1.27-0.0293 2.57-0.0251 0.881-0.0503 1.76-0.0762 2.67-0.0203 1.34-0.0203 1.34-0.041 2.71-0.0353 2.2-0.0847 4.4-0.146 6.61-6.38 1.2-12.5 1.16-19 1-0.857-0.0168-1.71-0.0335-2.6-0.0508-4.61-0.277-8.46-1.2-12.2-4.08-2.69-4.03-1.85-9.26-1.25-13.9 3.82-7.64 13.1-6.39 20.2-5.94z" fill="#FDFDFE"/>
<path transform="translate(1020 671)" d="m0 0c1.16-0.00129 2.32-0.00258 3.52-0.00391 1.22 0.00387 2.44 0.00773 3.69 0.0117 1.22-0.00387 2.45-0.00773 3.71-0.0117 1.16 0.00129 2.32 0.00258 3.52 0.00391 1.07 0.00113 2.14 0.00226 3.25 0.00342 2.47 0.129 2.47 0.129 3.47 1.13 0.099 1.55 0.131 3.1 0.133 4.66 0.00193 1.41 0.00193 1.41 0.00391 2.85-0.00387 0.989-0.00773 1.98-0.0117 3 0.0058 1.48 0.0058 1.48 0.0117 3-0.00129 0.94-0.00258 1.88-0.00391 2.85-0.00113 0.868-0.00226 1.74-0.00342 2.63-0.129 2.03-0.129 2.03-1.13 3.03-3.56 0.253-7.12 0.185-10.7 0.188-0.995 0.0122-1.99 0.0245-3.01 0.0371-6.49 0.013-11.3-0.732-17.2-3.66-2.96-3.57-2.82-6.39-2.62-10.9 0.719-3.79 2.41-5.43 5.5-7.64 2.7-1.35 4.83-1.13 7.85-1.13z" fill="#FDFDFE"/>
<path transform="translate(636,631)" d="m0 0h3c1.23 4.52 2.13 8.29 2 13 0.595 0.0198 1.19 0.0396 1.8 0.0601 2.69 0.0951 5.38 0.205 8.07 0.315 0.937 0.0309 1.87 0.0619 2.84 0.0938 0.896 0.0387 1.79 0.0773 2.71 0.117 1.24 0.0471 1.24 0.0471 2.51 0.0952 2.06 0.319 2.06 0.319 4.06 2.32-0.375 2.12-0.375 2.12-1 4-0.901-0.00786-0.901-0.00786-1.82-0.0159-2.71-0.0207-5.41-0.0338-8.12-0.0466-0.946-0.00838-1.89-0.0168-2.87-0.0254-0.899-0.00322-1.8-0.00645-2.72-0.00977-0.833-0.00524-1.67-0.0105-2.52-0.0159-1.95-0.103-1.95-0.103-2.95 1.11-0.22 4.47-0.186 8.94-0.185 13.4-0.00217 2.24-0.0203 4.49-0.0393 6.73-0.00294 1.43-0.00492 2.87-0.00586 4.3-0.00411 1.3-0.00822 2.61-0.0125 3.95 0.313 4.64 0.798 8.33 4.37 11.5 5.81 2.27 11.9 1.12 17.9 0.125 0.66 0.99 1.32 1.98 2 3-5.26 4.41-10.2 5.09-17 5-4.71-0.977-8.2-3.07-12-6-5.31-8.18-3.16-23-3.13-32.6 0.0054-2.16-7.47e-6 -4.31-0.00635-6.47-0.0111-16.9-0.0111-16.9 1.14-21.9l2-2z" fill="#DE1F1E"/>
<path transform="translate(831 433)" d="m0 0c11.8-0.882 25.1 5.1 34.8 11.3 0.733 0.469 1.47 0.938 2.22 1.42 1.65 1.11 3.22 2.34 4.78 3.58v2h2c0.495 1.98 0.495 1.98 1 4h2v2h2c5.18 10.4 5.18 10.4 6.1 12.2 0.843 1.68 1.71 3.34 2.59 5 2.36 5.02 2.48 10.3 2.31 15.8-1.82-3.29-2.76-6.57-3.75-10.2-2.24-7.47-5.6-13.4-11.2-18.8v3h-6c-0.495-1.98-0.495-1.98-1-4-0.639-0.103-1.28-0.206-1.94-0.312-0.681-0.227-1.36-0.454-2.06-0.688-0.495-1.49-0.495-1.49-1-3-0.825-0.474-1.65-0.949-2.5-1.44-2.5-1.56-2.5-1.56-3.12-3.69-0.124-0.619-0.247-1.24-0.375-1.88-0.99-0.33-1.98-0.66-3-1v-3c-6.77-6.39-14.4-7.23-23.3-7.08-0.879 0.0271-1.76 0.0541-2.66 0.082-1.35 0.0251-1.35 0.0251-2.73 0.0508-5.43 0.181-5.43 0.181-9.59 3.39-0.557 0.846-1.11 1.69-1.69 2.56-3.82 2.07-7.72 2.5-12 3 0.99 0.66 1.98 1.32 3 2-2.97-0.33-5.94-0.66-9-1-0.33 1.32-0.66 2.64-1 4-3.68 2.09-4.75 2.06-9 1v-9c0.66 1.32 1.32 2.64 2 4 3.68-0.23 5.68-1.41 8.44-3.69 10.1-7.89 21.4-10 33.8-11.6z" fill="#002B72"/>
<path transform="translate(886 650)" d="m0 0c2.12 1.54 3.33 2.71 4.59 5.01 0.539 3.42 0.427 6.57 0 10-0.99 0.33-1.98 0.66-3 1v2c-6.59 2.42-12.9 2.26-19.9 2.19-1.15-6.45e-4 -2.3-0.00129-3.49-0.00195-8.49-0.0451-8.49-0.0451-9.63-1.19 0.37-6.17 2.05-11.3 6.68-15.5 6.9-5.15 16.6-6.85 24.7-3.5z" fill="#FDFDFE"/>
<path transform="translate(776 380)" d="m0 0c1.04-0.00258 2.08-0.00516 3.15-0.00781 4.94 0.226 4.94 0.226 6.91 1.13 1.87 3.72 2.23 6.71 2.17 10.8-0.0137 1.15-0.0274 2.3-0.0416 3.49-0.0259 1.23-0.0518 2.47-0.0786 3.74-0.0203 1.27-0.0406 2.55-0.0615 3.86-0.0455 2.69-0.0952 5.38-0.152 8.06-0.0721 3.44-0.126 6.89-0.174 10.3-0.0487 3.29-0.112 6.58-0.175 9.87-0.0178 1.24-0.0357 2.48-0.054 3.75-0.0263 1.14-0.0527 2.29-0.0798 3.47-0.029 1.51-0.029 1.51-0.0587 3.06-0.292 2.53-0.292 2.53-2.29 5.53 0.00524-0.842 0.0105-1.68 0.0159-2.55 0.0171-3.15 0.0296-6.3 0.0391-9.45 5e-3 -1.36 0.0118-2.72 0.0205-4.08 0.0123-1.96 0.0173-3.93 0.0222-5.89 0.00524-1.18 0.0105-2.36 0.0159-3.57-0.0388-6.66-0.0388-6.66-2.68-12.5-1.98-2.67-1.66-4.7-1.44-7.94h-2c-0.33 0.66-0.66 1.32-1 2-0.33-0.99-0.66-1.98-1-3h3v-12c-3.3-1.1-4.4-0.871-7.69-0.0625-0.808 0.195-1.62 0.389-2.45 0.59-0.615 0.156-1.23 0.312-1.86 0.473v3c-1 3-1 3-2 5 0.0492 3.74 0.197 7.47 0.355 11.2-0.429 4.58-1.56 6.25-4.36 9.8-0.99-0.33-1.98-0.66-3-1-0.0585-3.85-0.0938-7.71-0.125-11.6-0.0168-1.09-0.0335-2.17-0.0508-3.29-0.0811-13.3-0.0811-13.3 3.58-17.9 4.72-3.48 7.73-4.4 13.5-4.38z" fill="#002B72"/>
<path transform="translate(615 643)" d="m0 0c1.03-0.00258 2.06-0.00516 3.12-0.00781 2.49 0.115 4.53 0.294 6.88 1.13 1.72 2.58 2 3.85 2 7-0.58-0.0209-1.16-0.0419-1.76-0.0635-2.64-0.0835-5.29-0.135-7.93-0.187-0.912-0.0335-1.82-0.067-2.76-0.102-4.32-0.0629-6.84-0.0667-10.6 2.18-3.65 4.13-3.1 8.7-3.16 13.9-0.0329 1.76-0.0661 3.52-0.0996 5.28-0.0475 2.77-0.092 5.55-0.131 8.32-0.0396 2.68-0.0911 5.35-0.144 8.03-0.00841 0.833-0.0168 1.67-0.0255 2.53-0.127 5.87-0.127 5.87-2.35 8.1-3.54-0.536-3.54-0.536-5-2-0.294-5.71-0.314-11.4-0.35-17.2-0.0165-1.93-0.0437-3.85-0.082-5.78-0.0551-2.78-0.0767-5.57-0.0913-8.35-0.0227-0.852-0.0453-1.7-0.0687-2.58 0.0214-6.14 1.54-10.4 5.59-15.1 5.33-4.12 10.4-5.14 17-5.12z" fill="#DE1F1E"/>
<path transform="translate(968 280)" d="m0 0c2.44 1.33 4.8 2.74 7.17 4.21 1.6 0.964 3.21 1.93 4.81 2.89 0.785 0.477 1.57 0.953 2.38 1.44 3.08 1.84 6.22 3.57 9.37 5.3 2.49 1.38 4.94 2.83 7.38 4.3 0.812 0.489 1.62 0.977 2.46 1.48 1.74 1.07 3.46 2.2 5.16 3.33-0.33 0.66-0.66 1.32-1 2-0.82-0.482-1.64-0.964-2.48-1.46-1.08-0.632-2.16-1.26-3.27-1.91-1.07-0.626-2.13-1.25-3.23-1.9-2.31-1.32-4.62-2.57-7.02-3.73v-2c-0.679-0.0928-1.36-0.186-2.06-0.281-3.63-0.886-6.72-2.49-10-4.22-9.09-4.77-16.1-5.32-26.1-3.13-2.1 0.549-2.1 0.549-3.88 2.63-0.701 0.268-1.4 0.536-2.12 0.812-2.52 1.04-4.53 2.17-6.81 3.62-8.26 5.26-8.26 5.26-12.7 6-2.52 0.377-2.52 0.377-4.25 2.44-2.25 2.25-4.26 3.07-7.19 4.21-3 1.42-5.46 3.45-8.04 5.52-4.06 3.01-6.82 3.63-11.9 3.4v-2l4-1v-2c1.13-0.557 2.27-1.11 3.44-1.69 3.79-1.89 7.49-3.91 11.2-5.98 2.45-1.37 4.92-2.69 7.39-4.02 4.1-2.22 8.12-4.56 12.1-6.95 6.08-3.62 12.2-7.22 18.4-10.6 1.05-0.571 2.11-1.14 3.19-1.73 4.99-1.66 8.84-1.19 13.5 0.962z" fill="#002B72"/>
<path transform="translate(1063,439)" d="m0 0c1 1 1 1 1.11 4.14-1.59e-4 1.39-0.00585 2.78-0.0159 4.17-0.00141 0.731-0.00283 1.46-0.00429 2.22-0.00561 2.34-0.0182 4.69-0.0309 7.03-0.00501 1.59-0.00958 3.17-0.0137 4.76-0.011 3.89-0.0283 7.79-0.0488 11.7h-1c-0.17-2.35-0.336-4.71-0.5-7.06-0.0928-1.31-0.186-2.62-0.281-3.97-0.202-3.67-0.257-7.29-0.219-11-1.18 0.0928-1.18 0.0928-2.38 0.188-1.3-0.0928-1.3-0.0928-2.62-0.188-0.66-0.99-1.32-1.98-2-3 0.66-0.33 1.32-0.66 2-1-2.64-0.33-5.28-0.66-8-1v3l-4 1c-0.33-0.99-0.66-1.98-1-3h-3c-0.177 7.53-0.177 7.53 0.562 15 0.438 3 0.438 3-0.562 6-0.225 2.23-0.408 4.46-0.562 6.69-0.0838 1.18-0.168 2.36-0.254 3.57-0.0606 0.904-0.121 1.81-0.184 2.74-0.99-0.33-1.98-0.66-3-1-0.0496-4.61-0.0858-9.22-0.11-13.8-0.01-1.57-0.0237-3.13-0.041-4.7-0.0244-2.26-0.0356-4.51-0.0444-6.77-0.0103-0.696-0.0206-1.39-0.0313-2.11-9.09e-4 -3.97 0.359-7.06 2.23-10.6 7.57-5.7 15.3-6.62 24-3z" fill="#002B72"/>
<path transform="translate(851,529)" d="m0 0c1.32 0.33 2.64 0.66 4 1-2.8 4.75-5.3 6.97-10 10-0.33 0.99-0.66 1.98-1 3h-5v4l2 2c-0.99 0.99-1.98 1.98-3 3 1.98 0.33 3.96 0.66 6 1v1c-4.29-0.33-8.58-0.66-13-1 0.33-2.64 0.66-5.28 1-8-2.97-0.33-5.94-0.66-9-1-0.33 0.99-0.66 1.98-1 3h-10c-0.402-1.67-0.402-1.67-0.812-3.38-0.846-3.84-0.846-3.84-4.19-5.62v-2h-2v-2c-1.32-0.33-2.64-0.66-4-1v-3c0.87 0.507 0.87 0.507 1.76 1.02 0.781 0.446 1.56 0.892 2.37 1.35 1.15 0.661 1.15 0.661 2.32 1.34 6.27 3.16 11.6 3.6 18.5 3.54 0.868 0.00773 1.74 0.0155 2.63 0.0234 7.61-0.023 13.8-1.39 20.4-5.27 0.66-0.99 1.32-1.98 2-3z" fill="#002B72"/>
<path transform="translate(1049,584)" d="m0 0c4.1-0.187 6.4 0.172 10 2 1.57 0.422 3.16 0.797 4.75 1.12 0.799 0.168 1.6 0.335 2.42 0.508 0.603 0.121 1.21 0.242 1.83 0.367v3h-9v2l4 2c-0.33 0.99-0.66 1.98-1 3-0.0674 1.56-0.0851 3.13-0.0625 4.69 0.00902 0.808 0.018 1.62 0.0273 2.45 0.0116 0.615 0.0232 1.23 0.0352 1.86 1.98 0.33 3.96 0.66 6 1v1c-9.63 0.174-16.3 0.159-24-6 0.298-7.13 1.71-12.7 5-19z" fill="#002B72"/>
<path transform="translate(531 389)" d="m0 0c1.45 0.866 1.45 0.866 2.94 1.75 0.846 0.495 1.69 0.99 2.56 1.5 4.15 4.25 8.44 10.4 8.44 16.5-3.74-1.25-4.19-2.63-6-6-0.33 0.66-0.66 1.32-1 2-3.1-0.0132-6-0.178-9-1-2.25-3-2.25-3-4-6-2.52-0.737-2.52-0.737-5-1-1.81-1.56-1.81-1.56-3-3-0.33 0.66-0.66 1.32-1 2h-2c-0.33-0.66-0.66-1.32-1-2h-7c0.98-2.67 1.58-3.78 4.15-5.11 6.32-1.97 14.7-2.15 20.9 0.363z" fill="#002B72"/>
<path transform="translate(870,549)" d="m0 0c-2.83 3.25-4.69 4.52-9 5-0.33 0.99-0.66 1.98-1 3-2.62 1.1-2.62 1.1-5.88 2.06-3.53 1.06-6.04 1.88-9.12 3.94-2.69 0.196-5.27 0.28-7.96 0.266-0.781 0.00191-1.56 0.00383-2.37 0.0058-1.65 0.00136-3.3-0.00233-4.96-0.0107-2.52-0.0107-5.03-1.23e-4 -7.54 0.0127-1.61-0.00132-3.21-0.00389-4.82-0.00781-0.747 0.00405-1.49 0.0081-2.26 0.0123-4.42-0.0392-7.99-0.656-12.1-2.28-1.16-0.422-1.16-0.422-2.34-0.852l-5.66-2.15v-1c4.16-0.181 7.75 0.0876 11.8 1 8.61 1.83 17.1 0.936 25.8 0.219 3.48-0.224 6.91-0.252 10.4-0.219 2.87 0 5.21-0.388 8-1 0.742-0.144 1.49-0.289 2.25-0.438 0.866-0.278 0.866-0.278 1.75-0.562 0.33-0.66 0.66-1.32 1-2h-4v-2c0.742-0.144 1.49-0.289 2.25-0.438 2.27-0.464 4.51-0.981 6.75-1.56v2h2v-2c3.62-2.12 3.62-2.12 7-1z" fill="#002C73"/>
<path transform="translate(1054,330)" d="m0 0c1.92 0.932 3.84 1.87 5.75 2.81 1.07 0.522 2.13 1.04 3.23 1.58 2.58 1.37 4.73 2.81 7.02 4.61 1.24 0.681 1.24 0.681 2.5 1.38 3.84 2.5 6.05 5.29 7.5 9.62 0.658 4.94 0.576 8.09-2.12 12.4-3.52 3.21-6.53 5.19-11.2 6.06-3.96-0.66-7.12-2.54-10.6-4.44-1.13-0.536-2.27-1.07-3.44-1.62-2.56-1.38-2.56-1.38-3.56-3.38 7.38 0.764 7.38 0.764 10.9 2.12 4.2 1.2 7.81 0.575 12.1-0.125 0.143-0.588 0.286-1.18 0.434-1.78 0.49-1.92 1.05-3.82 1.63-5.72 1.11-3.54 1.11-3.54 0.938-7.5-1.65-0.66-3.3-1.32-5-2v-2c-0.563-0.106-1.13-0.211-1.71-0.32-2.69-0.798-4.64-2-6.98-3.55-0.788-0.513-1.58-1.03-2.39-1.55-1.93-1.57-1.93-1.57-2.93-4.57h-2v-2z" fill="#002B72"/>
<path transform="translate(644,554)" d="m0 0c4.95 0.99 9.9 1.98 15 3v2c10.4 0.113 20.6-0.0801 31-1v-3c1.75-0.625 1.75-0.625 4-1 0.598 0.309 1.2 0.619 1.81 0.938 2.32 1.33 2.32 1.33 5.75 1 3.44 0.0625 3.44 0.0625 5.15 1.57 0.636 0.741 0.636 0.741 1.29 1.5-1.35 0.46-2.71 0.918-4.06 1.38-0.754 0.255-1.51 0.51-2.29 0.773-0.875 0.281-1.75 0.562-2.65 0.852-1.01 0.358-2.02 0.717-3.06 1.09-5.21 1.47-10.6 1.2-15.9 1.16-1.05 0.00773-2.11 0.0155-3.2 0.0234-5.65-0.0142-10.4-0.384-15.8-2.27-1.3-0.398-2.6-0.792-3.89-1.18-1.31-0.416-2.61-0.834-3.92-1.25-1-0.306-1-0.306-2.02-0.619-3.66-1.19-4.96-1.64-7.17-4.94z" fill="#002B72"/>
<path transform="translate(698,436)" d="m0 0c-0.33 0.66-0.66 1.32-1 2-0.553-0.0105-1.11-0.0209-1.68-0.0317-14.3-0.317-14.3-0.317-28.3 2.03v2h-3v2h-6c-0.33 0.99-0.66 1.98-1 3-2.33 1.57-2.33 1.57-5.25 3.12-0.954 0.518-1.91 1.04-2.89 1.57-2.67 1.22-4.97 1.87-7.86 2.3 1.81-3.62 3.61-5.73 7.08-7.83 1.5-0.91 2.96-1.88 4.41-2.87 5.4-3.64 10.3-6.21 16.6-7.79 1.89-0.337 1.89-0.337 2.9-1.51 7.71-1.54 19.3-2.45 26 2z" fill="#002B72"/>
<path transform="translate(705,531)" d="m0 0v3c-0.598 0.247-1.2 0.495-1.81 0.75-2.31 1.11-2.31 1.11-3.56 3.31-2.25 2.68-4.23 2.64-7.62 2.94v2c-9.77 2.11-18.1 1.56-27-3-0.99-0.66-1.98-1.32-3-2v-2h-2v-2c0.786 0.317 0.786 0.317 1.59 0.641 6.17 2.3 11.7 2.87 18.2 2.8 0.963-0.00467 1.93-0.00935 2.92-0.0142 7.72-0.16 16.5-0.665 22.3-6.42z" fill="#002B72"/>
<path transform="translate(980,434)" d="m0 0c10.4 0.672 19.2 4.4 28 10 1.02 0.65 1.02 0.65 2.06 1.31 7.08 5.3 10.8 13.6 13.9 21.7-0.33 0.99-0.66 1.98-1 3-1.13-2.26-2.22-4.51-3.25-6.81-3.47-6.32-7.1-10.2-13.8-13.2-1.02-0.981-2.02-1.98-3-3-0.99-0.33-1.98-0.66-3-1v-2c-1.42-0.371-1.42-0.371-2.88-0.75-6.26-1.79-12.3-4.27-18.1-7.25 0.33-0.66 0.66-1.32 1-2z" fill="#002C73"/>
<path transform="translate(705,438)" d="m0 0c9.23 0.486 16.6 7.25 23.3 13.1 1.83 2.06 2.17 3.3 2.71 5.93 0.639 0.268 1.28 0.536 1.94 0.812 2.06 1.19 2.06 1.19 3.31 4.81 0.247 1.11 0.495 2.23 0.75 3.38h2c0.99 2.64 1.98 5.28 3 8l-2 1c-0.473-0.678-0.946-1.36-1.43-2.05-8.09-11.4-8.09-11.4-18.2-21-2.36-1.96-2.36-1.96-3.29-4.01-1.65-3.02-4.13-3.77-7.2-5.2-1.1-0.521-2.19-1.04-3.32-1.58-0.843-0.387-1.69-0.773-2.55-1.17 0.33-0.66 0.66-1.32 1-2z" fill="#002C73"/>
<path transform="translate(602,547)" d="m0 0c2.73 2.33 3.54 4.13 4.25 7.62 0.17 0.797 0.34 1.59 0.516 2.41 0.0773 0.647 0.155 1.29 0.234 1.96-2.61 2.61-9.75 1.23-13.3 1.24-2.06 0.00969-4.12 0.0407-6.18 0.0723-1.29 0.00516-2.59 0.0103-3.92 0.0156-1.79 0.014-1.79 0.014-3.61 0.0283-2.99-0.356-2.99-0.356-4.83-1.76-2.63-3.61-3.41-6.1-3.16-10.6 0.99 0.33 1.98 0.66 3 1 0.289 0.969 0.577 1.94 0.875 2.94 0.792 3.16 0.792 3.16 3.19 4.27 3.74 1.02 7.18 0.886 11 0.609 1.06-0.0474 1.06-0.0474 2.14-0.0957 4.09-0.265 6.96-0.636 9.79-3.72 0.334-3.13 0.334-3.13 0-6z" fill="#002C73"/>
<path transform="translate(834,457)" d="m0 0c0.33 0.66 0.66 1.32 1 2-3.55 1.77-7.88 1.03-11.8 0.961-4.52-0.0506-8.74 0.291-13.2 1.04-0.33 0.99-0.66 1.98-1 3h-4c-0.33-1.32-0.66-2.64-1-4 9.24-7.17 19.3-7.49 30-3z" fill="#002B72"/>
<path transform="translate(1116,535)" d="m0 0c-3.13 3.73-5.25 4.37-10 5-0.33 0.66-0.66 1.32-1 2-6.59 1.27-13.2 1.86-19-2v-2h-2v-2c0.717 0.00524 1.43 0.0105 2.17 0.0159 3.23 0.0207 6.47 0.0338 9.7 0.0466 1.13 0.00838 2.26 0.0168 3.42 0.0254 1.61 0.00483 1.61 0.00483 3.26 0.00977 1.49 0.00786 1.49 0.00786 3.02 0.0159 3.63-0.169 6.6-1.2 10.4-1.11z" fill="#002B72"/>
<path transform="translate(1118,554)" d="m0 0c-0.33 0.99-0.66 1.98-1 3-4.63 1.74-9.07 2.31-14 2.66-2.32 0.256-2.32 0.256-5.02 2.34-3 0.266-3 0.266-6.44 0.25-1.13 0.00516-2.27 0.0103-3.43 0.0156-3.06-0.26-4.49-0.861-7.13-2.27-2.59-0.355-5.15-0.501-7.76-0.656-2.24-0.344-2.24-0.344-4.24-2.34 0.846 0.00524 1.69 0.0105 2.56 0.0159 3.2 0.0172 6.4 0.0297 9.59 0.0391 1.37 0.00497 2.75 0.0117 4.12 0.0205 11 0.0685 22.3-3.08 32.7-3.08z" fill="#002C73"/>
<path transform="translate(463,549)" d="m0 0c0.688 1.56 0.688 1.56 1 4-0.954 2.35-1.95 4.69-3 7-19 1.52-19 1.52-27-1-0.33-1.65-0.66-3.3-1-5h4c-0.33 0.99-0.66 1.98-1 3 3.75 0.0353 7.5-0.00648 11.2-0.0625 1.6 0.0164 1.6 0.0164 3.22 0.0332 5.58 0.0939 5.58 0.0939 10.2-2.59 1.28-2.12 1.28-2.12 2.37-5.38z" fill="#002B72"/>
<path transform="translate(1075 588)" d="m0 0c1.65 0.0595 1.65 0.0595 3.34 0.12 1.8 0.0638 1.8 0.0638 3.63 0.129 1.26 0.0554 2.51 0.111 3.81 0.168 1.88 0.0599 1.88 0.0599 3.8 0.121 9.38 0.373 9.38 0.373 12.8 2.63-5.58 2.79-13.1 2.15-19.2 2.25-0.685 0.0214-1.37 0.0427-2.08 0.0647-4.43 0.0297-7.11-0.689-10.7-3.31 2-2 2-2 4.66-2.17z" fill="#002B72"/>
<path transform="translate(958 308)" d="m0 0c4.41 0.0692 6.98 0.952 10.8 3.25 1.67 0.875 3.33 1.75 5 2.62 6.9 3.77 13.4 8.06 20 12.4-3 1-3 1-5.19 0.0625-0.598-0.351-1.2-0.701-1.81-1.06v-2c-0.701-0.0825-1.4-0.165-2.12-0.25-3.57-0.931-5.86-2.64-8.88-4.75-8.09-5.25-8.09-5.25-17.2-6.75-1.93 0.527-3.85 1.12-5.75 1.75 0-5.28 0.386-5.15 5.19-5.25z" fill="#002C73"/>
<path transform="translate(1040,499)" d="m0 0v24h-2c-1.23-2.45-1.11-4.05-1.1-6.79 0.00322-0.941 0.00645-1.88 0.00977-2.85 0.00838-0.985 0.0168-1.97 0.0254-2.98 0.00451-0.993 0.00902-1.99 0.0137-3.01 0.0118-2.46 0.0283-4.91 0.0488-7.37 2-1 2-1 3-1z" fill="#002B72"/>
<path transform="translate(716,483)" d="m0 0c4.03 4.03 4.26 8.3 4.27 13.7-0.00773 0.808-0.0155 1.62-0.0234 2.45 0.00773 0.819 0.0155 1.64 0.0234 2.48-0.02 6.08-0.02 6.08-2.27 8.33-1.25-5.24-1.36-10.5-1.61-15.8-0.193-4.21-0.193-4.21-0.975-8.33-0.139-0.599-0.277-1.2-0.42-1.82 0.33-0.33 0.66-0.66 1-1z" fill="#002B72"/>
<path transform="translate(925,451)" d="m0 0c0.33 0.66 0.66 1.32 1 2-0.33 0.99-0.66 1.98-1 3h-2c-0.155 0.928-0.155 0.928-0.312 1.88-0.688 2.12-0.688 2.12-3.69 4.12-1.06 1.97-2.07 3.97-3 6h-2v3h-2c1.02-6.92 3.93-11.3 9-16 0.763-0.763 1.53-1.53 2.31-2.31l1.69-1.69z" fill="#002A70"/>
<path transform="translate(744,510)" d="m0 0c0.66 0.66 1.32 1.32 2 2-4.3 15.5-4.3 15.5-8 21-1.07-3.24-0.924-5.09 0.18-8.29 0.269-0.795 0.539-1.59 0.816-2.41 0.29-0.82 0.58-1.64 0.879-2.49 0.423-1.25 0.423-1.25 0.855-2.52 2.11-6.13 2.11-6.13 3.27-7.29z" fill="#002C73"/>
<path transform="translate(908,477)" d="m0 0h2c0.32 6.72-0.521 11.8-3 18-0.99-0.66-1.98-1.32-3-2 1.71-13.7 1.71-13.7 4-16z" fill="#002B71"/>
<path transform="translate(940,319)" d="m0 0c-2 3-2 3-3.91 3.62-1.44 0.25-2.87 0.5-4.31 0.75-0.88 0.309-0.88 0.309-1.78 0.625-0.33 0.99-0.66 1.98-1 3h-3c-0.0425-2-0.0408-4 0-6 2.71-2.71 10.3-2.12 14-2z" fill="#002C73"/>
<path transform="translate(841,461)" d="m0 0c7.69 0.614 12 5.53 17 11 1.49 2.41 2.23 4.26 3 7h-2v-2h-2c-0.695-1.16-1.33-2.35-1.94-3.56-2.91-4.96-6.95-7.26-11.8-10.1-0.736-0.445-1.47-0.889-2.23-1.35v-1z" fill="#002B72"/>
<path transform="translate(1130,544)" d="m0 0c2 2 2 2 2.23 4.43-0.0142 0.953-0.0284 1.91-0.043 2.89-0.00645 0.945-0.0129 1.89-0.0195 2.86-0.16 2.7-0.569 5.19-1.17 7.82-0.99-0.33-1.98-0.66-3-1 0.66-3.96 1.32-7.92 2-12-0.99-0.33-1.98-0.66-3-1 0.99-1.32 1.98-2.64 3-4z" fill="#002A71"/>
<path transform="translate(682,456)" d="m0 0c0.33 0.66 0.66 1.32 1 2-0.964 0.11-1.93 0.219-2.92 0.332-1.26 0.159-2.53 0.317-3.83 0.48-1.25 0.151-2.51 0.302-3.8 0.457-3.44 0.727-4.81 1.56-7.45 3.73h-3v-2c1.32-0.33 2.64-0.66 4-1v-2c5.49-1.87 10.2-2.24 16-2z" fill="#002C73"/>
<path transform="translate(622,531)" d="m0 0c3.99 2.39 4.6 4.69 6 9 0.99 0.33 1.98 0.66 3 1 0.688 2.06 0.688 2.06 1 4 1.32 0.33 2.64 0.66 4 1v2c-5.64-0.936-8.01-5.36-11.3-9.69-1.88-2.66-2.73-3.98-2.73-7.31z" fill="#002B72"/>
<path transform="translate(1074,610)" d="m0 0c6.43-0.121 12.6 0.176 19 1-0.33 0.66-0.66 1.32-1 2-2.25 0.0812-4.5 0.139-6.75 0.188-1.25 0.0348-2.51 0.0696-3.8 0.105-3.59-0.305-4.9-0.837-7.45-3.29z" fill="#002C73"/>
<path transform="translate(487,488)" d="m0 0c1.49 0.99 1.49 0.99 3 2 2.51 0.456 2.51 0.456 5.19 0.625 0.901 0.0748 1.8 0.15 2.73 0.227 0.687 0.049 1.37 0.098 2.08 0.148 0.33 0.99 0.66 1.98 1 3-4.29-0.33-8.58-0.66-13-1-0.33-1.65-0.66-3.3-1-5z" fill="#002B72"/>
<path transform="translate(948,444)" d="m0 0h7c0.33 1.65 0.66 3.3 1 5-1.98 0.66-3.96 1.32-6 2-1.46-2.65-2-3.89-2-7z" fill="#00276C"/>
<path transform="translate(948 510)" d="m0 0c1.25 0.195 2.51 0.389 3.8 0.59 0.953 0.156 1.91 0.312 2.89 0.473v1h-19v-2c4.36-1.19 7.88-0.767 12.3-0.0625z" fill="#002C73"/>
<path transform="translate(1108,550)" d="m0 0h9v2c1.32-0.66 2.64-1.32 4-2 0.33 0.99 0.66 1.98 1 3-3.41 1.1-6.21 0.942-9.75 0.562-1.48-0.153-1.48-0.153-2.98-0.309-0.748-0.0838-1.5-0.168-2.27-0.254 0.33-0.99 0.66-1.98 1-3z" fill="#002C73"/>
<path transform="translate(728,543)" d="m0 0c0.66 0.33 1.32 0.66 2 1-3.3 2.97-6.6 5.94-10 9-0.99-0.33-1.98-0.66-3-1 1.38-2.76 3.38-3.44 6-5 1.02-0.981 2.02-1.98 3-3 0.66-0.33 1.32-0.66 2-1z" fill="#002C73"/>
<path transform="translate(884,529)" d="m0 0c1 3 1 3-0.125 5.31-2.14 3.06-4.44 5.86-6.88 8.69-0.33-0.66-0.66-1.32-1-2 0.577-0.681 1.15-1.36 1.75-2.06 2.45-3.2 4.31-6.41 6.25-9.94z" fill="#002C73"/>
<path transform="translate(1022,478)" d="m0 0 2 1c-0.67 8.17-0.67 8.17-4 11 0.142-1.44 0.289-2.88 0.438-4.31 0.0812-0.801 0.162-1.6 0.246-2.43 0.316-2.26 0.316-2.26 1.32-5.26z" fill="#002C73"/>
<path transform="translate(707,469)" d="m0 0c4.21 1.5 5.74 4.29 8 8-0.33 0.66-0.66 1.32-1 2-3.39-3.13-5.61-5.57-7-10z" fill="#002C73"/>
<path transform="translate(717,553)" d="m0 0c-0.639 0.268-1.28 0.536-1.94 0.812-2.39 1.07-2.39 1.07-3.06 4.19h-4v-2c0.66-0.33 1.32-0.66 2-1-0.99-0.66-1.98-1.32-3-2 3.69-1.23 6.21-0.644 10 0z" fill="#002C73"/>
<path transform="translate(776,542)" d="m0 0c4.88 2.62 4.88 2.62 6 6 1.65 1.03 3.32 2.03 5 3 0.33 0.66 0.66 1.32 1 2-5.4-1.52-8.98-5.27-13-9 0.33-0.66 0.66-1.32 1-2z" fill="#002C73"/>
<path transform="translate(866,494)" d="m0 0v10c-0.99-0.33-1.98-0.66-3-1v-8c2-1 2-1 3-1z" fill="#002B72"/>
</svg>
